<?xml version="1.0" encoding="utf-8"?>
<svg xmlns="http://www.w3.org/2000/svg" xmlns:xlink="http://www.w3.org/1999/xlink" style="margin: auto; background: rgb(241, 242, 243); display: block; shape-rendering: auto;" width="244px" height="244px" viewBox="0 0 100 100" preserveAspectRatio="xMidYMid">
<g transform="rotate(0 50 50)">
  <rect x="43" y="22.5" rx="7" ry="4.5" width="14" height="9" fill="#ffa05b">
    <animate attributeName="opacity" values="1;0" keyTimes="0;1" dur="0.5813953488372093s" begin="-0.5755813953488372s" repeatCount="indefinite"></animate>
  </rect>
</g><g transform="rotate(3.6 50 50)">
  <rect x="43" y="22.5" rx="7" ry="4.5" width="14" height="9" fill="#ffa05b">
    <animate attributeName="opacity" values="1;0" keyTimes="0;1" dur="0.5813953488372093s" begin="-0.5697674418604651s" repeatCount="indefinite"></animate>
  </rect>
</g><g transform="rotate(7.2 50 50)">
  <rect x="43" y="22.5" rx="7" ry="4.5" width="14" height="9" fill="#ffa05b">
    <animate attributeName="opacity" values="1;0" keyTimes="0;1" dur="0.5813953488372093s" begin="-0.563953488372093s" repeatCount="indefinite"></animate>
  </rect>
</g><g transform="rotate(10.8 50 50)">
  <rect x="43" y="22.5" rx="7" ry="4.5" width="14" height="9" fill="#ffa05b">
    <animate attributeName="opacity" values="1;0" keyTimes="0;1" dur="0.5813953488372093s" begin="-0.5581395348837209s" repeatCount="indefinite"></animate>
  </rect>
</g><g transform="rotate(14.4 50 50)">
  <rect x="43" y="22.5" rx="7" ry="4.5" width="14" height="9" fill="#ffa05b">
    <animate attributeName="opacity" values="1;0" keyTimes="0;1" dur="0.5813953488372093s" begin="-0.5523255813953488s" repeatCount="indefinite"></animate>
  </rect>
</g><g transform="rotate(18 50 50)">
  <rect x="43" y="22.5" rx="7" ry="4.5" width="14" height="9" fill="#ffa05b">
    <animate attributeName="opacity" values="1;0" keyTimes="0;1" dur="0.5813953488372093s" begin="-0.5465116279069767s" repeatCount="indefinite"></animate>
  </rect>
</g><g transform="rotate(21.6 50 50)">
  <rect x="43" y="22.5" rx="7" ry="4.5" width="14" height="9" fill="#ffa05b">
    <animate attributeName="opacity" values="1;0" keyTimes="0;1" dur="0.5813953488372093s" begin="-0.5406976744186046s" repeatCount="indefinite"></animate>
  </rect>
</g><g transform="rotate(25.2 50 50)">
  <rect x="43" y="22.5" rx="7" ry="4.5" width="14" height="9" fill="#ffa05b">
    <animate attributeName="opacity" values="1;0" keyTimes="0;1" dur="0.5813953488372093s" begin="-0.5348837209302325s" repeatCount="indefinite"></animate>
  </rect>
</g><g transform="rotate(28.8 50 50)">
  <rect x="43" y="22.5" rx="7" ry="4.5" width="14" height="9" fill="#ffa05b">
    <animate attributeName="opacity" values="1;0" keyTimes="0;1" dur="0.5813953488372093s" begin="-0.5290697674418605s" repeatCount="indefinite"></animate>
  </rect>
</g><g transform="rotate(32.4 50 50)">
  <rect x="43" y="22.5" rx="7" ry="4.5" width="14" height="9" fill="#ffa05b">
    <animate attributeName="opacity" values="1;0" keyTimes="0;1" dur="0.5813953488372093s" begin="-0.5232558139534884s" repeatCount="indefinite"></animate>
  </rect>
</g><g transform="rotate(36 50 50)">
  <rect x="43" y="22.5" rx="7" ry="4.5" width="14" height="9" fill="#ffa05b">
    <animate attributeName="opacity" values="1;0" keyTimes="0;1" dur="0.5813953488372093s" begin="-0.5174418604651163s" repeatCount="indefinite"></animate>
  </rect>
</g><g transform="rotate(39.6 50 50)">
  <rect x="43" y="22.5" rx="7" ry="4.5" width="14" height="9" fill="#ffa05b">
    <animate attributeName="opacity" values="1;0" keyTimes="0;1" dur="0.5813953488372093s" begin="-0.5116279069767442s" repeatCount="indefinite"></animate>
  </rect>
</g><g transform="rotate(43.2 50 50)">
  <rect x="43" y="22.5" rx="7" ry="4.5" width="14" height="9" fill="#ffa05b">
    <animate attributeName="opacity" values="1;0" keyTimes="0;1" dur="0.5813953488372093s" begin="-0.5058139534883721s" repeatCount="indefinite"></animate>
  </rect>
</g><g transform="rotate(46.8 50 50)">
  <rect x="43" y="22.5" rx="7" ry="4.5" width="14" height="9" fill="#ffa05b">
    <animate attributeName="opacity" values="1;0" keyTimes="0;1" dur="0.5813953488372093s" begin="-0.5s" repeatCount="indefinite"></animate>
  </rect>
</g><g transform="rotate(50.4 50 50)">
  <rect x="43" y="22.5" rx="7" ry="4.5" width="14" height="9" fill="#ffa05b">
    <animate attributeName="opacity" values="1;0" keyTimes="0;1" dur="0.5813953488372093s" begin="-0.4941860465116279s" repeatCount="indefinite"></animate>
  </rect>
</g><g transform="rotate(54 50 50)">
  <rect x="43" y="22.5" rx="7" ry="4.5" width="14" height="9" fill="#ffa05b">
    <animate attributeName="opacity" values="1;0" keyTimes="0;1" dur="0.5813953488372093s" begin="-0.4883720930232558s" repeatCount="indefinite"></animate>
  </rect>
</g><g transform="rotate(57.6 50 50)">
  <rect x="43" y="22.5" rx="7" ry="4.5" width="14" height="9" fill="#ffa05b">
    <animate attributeName="opacity" values="1;0" keyTimes="0;1" dur="0.5813953488372093s" begin="-0.48255813953488375s" repeatCount="indefinite"></animate>
  </rect>
</g><g transform="rotate(61.2 50 50)">
  <rect x="43" y="22.5" rx="7" ry="4.5" width="14" height="9" fill="#ffa05b">
    <animate attributeName="opacity" values="1;0" keyTimes="0;1" dur="0.5813953488372093s" begin="-0.47674418604651164s" repeatCount="indefinite"></animate>
  </rect>
</g><g transform="rotate(64.8 50 50)">
  <rect x="43" y="22.5" rx="7" ry="4.5" width="14" height="9" fill="#ffa05b">
    <animate attributeName="opacity" values="1;0" keyTimes="0;1" dur="0.5813953488372093s" begin="-0.47093023255813954s" repeatCount="indefinite"></animate>
  </rect>
</g><g transform="rotate(68.4 50 50)">
  <rect x="43" y="22.5" rx="7" ry="4.5" width="14" height="9" fill="#ffa05b">
    <animate attributeName="opacity" values="1;0" keyTimes="0;1" dur="0.5813953488372093s" begin="-0.46511627906976744s" repeatCount="indefinite"></animate>
  </rect>
</g><g transform="rotate(72 50 50)">
  <rect x="43" y="22.5" rx="7" ry="4.5" width="14" height="9" fill="#ffa05b">
    <animate attributeName="opacity" values="1;0" keyTimes="0;1" dur="0.5813953488372093s" begin="-0.45930232558139533s" repeatCount="indefinite"></animate>
  </rect>
</g><g transform="rotate(75.6 50 50)">
  <rect x="43" y="22.5" rx="7" ry="4.5" width="14" height="9" fill="#ffa05b">
    <animate attributeName="opacity" values="1;0" keyTimes="0;1" dur="0.5813953488372093s" begin="-0.45348837209302323s" repeatCount="indefinite"></animate>
  </rect>
</g><g transform="rotate(79.2 50 50)">
  <rect x="43" y="22.5" rx="7" ry="4.5" width="14" height="9" fill="#ffa05b">
    <animate attributeName="opacity" values="1;0" keyTimes="0;1" dur="0.5813953488372093s" begin="-0.4476744186046512s" repeatCount="indefinite"></animate>
  </rect>
</g><g transform="rotate(82.8 50 50)">
  <rect x="43" y="22.5" rx="7" ry="4.5" width="14" height="9" fill="#ffa05b">
    <animate attributeName="opacity" values="1;0" keyTimes="0;1" dur="0.5813953488372093s" begin="-0.4418604651162791s" repeatCount="indefinite"></animate>
  </rect>
</g><g transform="rotate(86.4 50 50)">
  <rect x="43" y="22.5" rx="7" ry="4.5" width="14" height="9" fill="#ffa05b">
    <animate attributeName="opacity" values="1;0" keyTimes="0;1" dur="0.5813953488372093s" begin="-0.436046511627907s" repeatCount="indefinite"></animate>
  </rect>
</g><g transform="rotate(90 50 50)">
  <rect x="43" y="22.5" rx="7" ry="4.5" width="14" height="9" fill="#ffa05b">
    <animate attributeName="opacity" values="1;0" keyTimes="0;1" dur="0.5813953488372093s" begin="-0.43023255813953487s" repeatCount="indefinite"></animate>
  </rect>
</g><g transform="rotate(93.6 50 50)">
  <rect x="43" y="22.5" rx="7" ry="4.5" width="14" height="9" fill="#ffa05b">
    <animate attributeName="opacity" values="1;0" keyTimes="0;1" dur="0.5813953488372093s" begin="-0.42441860465116277s" repeatCount="indefinite"></animate>
  </rect>
</g><g transform="rotate(97.2 50 50)">
  <rect x="43" y="22.5" rx="7" ry="4.5" width="14" height="9" fill="#ffa05b">
    <animate attributeName="opacity" values="1;0" keyTimes="0;1" dur="0.5813953488372093s" begin="-0.4186046511627907s" repeatCount="indefinite"></animate>
  </rect>
</g><g transform="rotate(100.8 50 50)">
  <rect x="43" y="22.5" rx="7" ry="4.5" width="14" height="9" fill="#ffa05b">
    <animate attributeName="opacity" values="1;0" keyTimes="0;1" dur="0.5813953488372093s" begin="-0.4127906976744186s" repeatCount="indefinite"></animate>
  </rect>
</g><g transform="rotate(104.4 50 50)">
  <rect x="43" y="22.5" rx="7" ry="4.5" width="14" height="9" fill="#ffa05b">
    <animate attributeName="opacity" values="1;0" keyTimes="0;1" dur="0.5813953488372093s" begin="-0.4069767441860465s" repeatCount="indefinite"></animate>
  </rect>
</g><g transform="rotate(108 50 50)">
  <rect x="43" y="22.5" rx="7" ry="4.5" width="14" height="9" fill="#ffa05b">
    <animate attributeName="opacity" values="1;0" keyTimes="0;1" dur="0.5813953488372093s" begin="-0.4011627906976744s" repeatCount="indefinite"></animate>
  </rect>
</g><g transform="rotate(111.6 50 50)">
  <rect x="43" y="22.5" rx="7" ry="4.5" width="14" height="9" fill="#ffa05b">
    <animate attributeName="opacity" values="1;0" keyTimes="0;1" dur="0.5813953488372093s" begin="-0.3953488372093023s" repeatCount="indefinite"></animate>
  </rect>
</g><g transform="rotate(115.2 50 50)">
  <rect x="43" y="22.5" rx="7" ry="4.5" width="14" height="9" fill="#ffa05b">
    <animate attributeName="opacity" values="1;0" keyTimes="0;1" dur="0.5813953488372093s" begin="-0.38953488372093026s" repeatCount="indefinite"></animate>
  </rect>
</g><g transform="rotate(118.8 50 50)">
  <rect x="43" y="22.5" rx="7" ry="4.5" width="14" height="9" fill="#ffa05b">
    <animate attributeName="opacity" values="1;0" keyTimes="0;1" dur="0.5813953488372093s" begin="-0.38372093023255816s" repeatCount="indefinite"></animate>
  </rect>
</g><g transform="rotate(122.4 50 50)">
  <rect x="43" y="22.5" rx="7" ry="4.5" width="14" height="9" fill="#ffa05b">
    <animate attributeName="opacity" values="1;0" keyTimes="0;1" dur="0.5813953488372093s" begin="-0.37790697674418605s" repeatCount="indefinite"></animate>
  </rect>
</g><g transform="rotate(126 50 50)">
  <rect x="43" y="22.5" rx="7" ry="4.5" width="14" height="9" fill="#ffa05b">
    <animate attributeName="opacity" values="1;0" keyTimes="0;1" dur="0.5813953488372093s" begin="-0.37209302325581395s" repeatCount="indefinite"></animate>
  </rect>
</g><g transform="rotate(129.6 50 50)">
  <rect x="43" y="22.5" rx="7" ry="4.5" width="14" height="9" fill="#ffa05b">
    <animate attributeName="opacity" values="1;0" keyTimes="0;1" dur="0.5813953488372093s" begin="-0.36627906976744184s" repeatCount="indefinite"></animate>
  </rect>
</g><g transform="rotate(133.2 50 50)">
  <rect x="43" y="22.5" rx="7" ry="4.5" width="14" height="9" fill="#ffa05b">
    <animate attributeName="opacity" values="1;0" keyTimes="0;1" dur="0.5813953488372093s" begin="-0.36046511627906974s" repeatCount="indefinite"></animate>
  </rect>
</g><g transform="rotate(136.8 50 50)">
  <rect x="43" y="22.5" rx="7" ry="4.5" width="14" height="9" fill="#ffa05b">
    <animate attributeName="opacity" values="1;0" keyTimes="0;1" dur="0.5813953488372093s" begin="-0.3546511627906977s" repeatCount="indefinite"></animate>
  </rect>
</g><g transform="rotate(140.4 50 50)">
  <rect x="43" y="22.5" rx="7" ry="4.5" width="14" height="9" fill="#ffa05b">
    <animate attributeName="opacity" values="1;0" keyTimes="0;1" dur="0.5813953488372093s" begin="-0.3488372093023256s" repeatCount="indefinite"></animate>
  </rect>
</g><g transform="rotate(144 50 50)">
  <rect x="43" y="22.5" rx="7" ry="4.5" width="14" height="9" fill="#ffa05b">
    <animate attributeName="opacity" values="1;0" keyTimes="0;1" dur="0.5813953488372093s" begin="-0.3430232558139535s" repeatCount="indefinite"></animate>
  </rect>
</g><g transform="rotate(147.6 50 50)">
  <rect x="43" y="22.5" rx="7" ry="4.5" width="14" height="9" fill="#ffa05b">
    <animate attributeName="opacity" values="1;0" keyTimes="0;1" dur="0.5813953488372093s" begin="-0.3372093023255814s" repeatCount="indefinite"></animate>
  </rect>
</g><g transform="rotate(151.2 50 50)">
  <rect x="43" y="22.5" rx="7" ry="4.5" width="14" height="9" fill="#ffa05b">
    <animate attributeName="opacity" values="1;0" keyTimes="0;1" dur="0.5813953488372093s" begin="-0.3313953488372093s" repeatCount="indefinite"></animate>
  </rect>
</g><g transform="rotate(154.8 50 50)">
  <rect x="43" y="22.5" rx="7" ry="4.5" width="14" height="9" fill="#ffa05b">
    <animate attributeName="opacity" values="1;0" keyTimes="0;1" dur="0.5813953488372093s" begin="-0.32558139534883723s" repeatCount="indefinite"></animate>
  </rect>
</g><g transform="rotate(158.4 50 50)">
  <rect x="43" y="22.5" rx="7" ry="4.5" width="14" height="9" fill="#ffa05b">
    <animate attributeName="opacity" values="1;0" keyTimes="0;1" dur="0.5813953488372093s" begin="-0.31976744186046513s" repeatCount="indefinite"></animate>
  </rect>
</g><g transform="rotate(162 50 50)">
  <rect x="43" y="22.5" rx="7" ry="4.5" width="14" height="9" fill="#ffa05b">
    <animate attributeName="opacity" values="1;0" keyTimes="0;1" dur="0.5813953488372093s" begin="-0.313953488372093s" repeatCount="indefinite"></animate>
  </rect>
</g><g transform="rotate(165.6 50 50)">
  <rect x="43" y="22.5" rx="7" ry="4.5" width="14" height="9" fill="#ffa05b">
    <animate attributeName="opacity" values="1;0" keyTimes="0;1" dur="0.5813953488372093s" begin="-0.3081395348837209s" repeatCount="indefinite"></animate>
  </rect>
</g><g transform="rotate(169.2 50 50)">
  <rect x="43" y="22.5" rx="7" ry="4.5" width="14" height="9" fill="#ffa05b">
    <animate attributeName="opacity" values="1;0" keyTimes="0;1" dur="0.5813953488372093s" begin="-0.3023255813953488s" repeatCount="indefinite"></animate>
  </rect>
</g><g transform="rotate(172.8 50 50)">
  <rect x="43" y="22.5" rx="7" ry="4.5" width="14" height="9" fill="#ffa05b">
    <animate attributeName="opacity" values="1;0" keyTimes="0;1" dur="0.5813953488372093s" begin="-0.29651162790697677s" repeatCount="indefinite"></animate>
  </rect>
</g><g transform="rotate(176.4 50 50)">
  <rect x="43" y="22.5" rx="7" ry="4.5" width="14" height="9" fill="#ffa05b">
    <animate attributeName="opacity" values="1;0" keyTimes="0;1" dur="0.5813953488372093s" begin="-0.29069767441860467s" repeatCount="indefinite"></animate>
  </rect>
</g><g transform="rotate(180 50 50)">
  <rect x="43" y="22.5" rx="7" ry="4.5" width="14" height="9" fill="#ffa05b">
    <animate attributeName="opacity" values="1;0" keyTimes="0;1" dur="0.5813953488372093s" begin="-0.28488372093023256s" repeatCount="indefinite"></animate>
  </rect>
</g><g transform="rotate(183.6 50 50)">
  <rect x="43" y="22.5" rx="7" ry="4.5" width="14" height="9" fill="#ffa05b">
    <animate attributeName="opacity" values="1;0" keyTimes="0;1" dur="0.5813953488372093s" begin="-0.27906976744186046s" repeatCount="indefinite"></animate>
  </rect>
</g><g transform="rotate(187.2 50 50)">
  <rect x="43" y="22.5" rx="7" ry="4.5" width="14" height="9" fill="#ffa05b">
    <animate attributeName="opacity" values="1;0" keyTimes="0;1" dur="0.5813953488372093s" begin="-0.27325581395348836s" repeatCount="indefinite"></animate>
  </rect>
</g><g transform="rotate(190.8 50 50)">
  <rect x="43" y="22.5" rx="7" ry="4.5" width="14" height="9" fill="#ffa05b">
    <animate attributeName="opacity" values="1;0" keyTimes="0;1" dur="0.5813953488372093s" begin="-0.26744186046511625s" repeatCount="indefinite"></animate>
  </rect>
</g><g transform="rotate(194.4 50 50)">
  <rect x="43" y="22.5" rx="7" ry="4.5" width="14" height="9" fill="#ffa05b">
    <animate attributeName="opacity" values="1;0" keyTimes="0;1" dur="0.5813953488372093s" begin="-0.2616279069767442s" repeatCount="indefinite"></animate>
  </rect>
</g><g transform="rotate(198 50 50)">
  <rect x="43" y="22.5" rx="7" ry="4.5" width="14" height="9" fill="#ffa05b">
    <animate attributeName="opacity" values="1;0" keyTimes="0;1" dur="0.5813953488372093s" begin="-0.2558139534883721s" repeatCount="indefinite"></animate>
  </rect>
</g><g transform="rotate(201.6 50 50)">
  <rect x="43" y="22.5" rx="7" ry="4.5" width="14" height="9" fill="#ffa05b">
    <animate attributeName="opacity" values="1;0" keyTimes="0;1" dur="0.5813953488372093s" begin="-0.25s" repeatCount="indefinite"></animate>
  </rect>
</g><g transform="rotate(205.2 50 50)">
  <rect x="43" y="22.5" rx="7" ry="4.5" width="14" height="9" fill="#ffa05b">
    <animate attributeName="opacity" values="1;0" keyTimes="0;1" dur="0.5813953488372093s" begin="-0.2441860465116279s" repeatCount="indefinite"></animate>
  </rect>
</g><g transform="rotate(208.8 50 50)">
  <rect x="43" y="22.5" rx="7" ry="4.5" width="14" height="9" fill="#ffa05b">
    <animate attributeName="opacity" values="1;0" keyTimes="0;1" dur="0.5813953488372093s" begin="-0.23837209302325582s" repeatCount="indefinite"></animate>
  </rect>
</g><g transform="rotate(212.4 50 50)">
  <rect x="43" y="22.5" rx="7" ry="4.5" width="14" height="9" fill="#ffa05b">
    <animate attributeName="opacity" values="1;0" keyTimes="0;1" dur="0.5813953488372093s" begin="-0.23255813953488372s" repeatCount="indefinite"></animate>
  </rect>
</g><g transform="rotate(216 50 50)">
  <rect x="43" y="22.5" rx="7" ry="4.5" width="14" height="9" fill="#ffa05b">
    <animate attributeName="opacity" values="1;0" keyTimes="0;1" dur="0.5813953488372093s" begin="-0.22674418604651161s" repeatCount="indefinite"></animate>
  </rect>
</g><g transform="rotate(219.6 50 50)">
  <rect x="43" y="22.5" rx="7" ry="4.5" width="14" height="9" fill="#ffa05b">
    <animate attributeName="opacity" values="1;0" keyTimes="0;1" dur="0.5813953488372093s" begin="-0.22093023255813954s" repeatCount="indefinite"></animate>
  </rect>
</g><g transform="rotate(223.2 50 50)">
  <rect x="43" y="22.5" rx="7" ry="4.5" width="14" height="9" fill="#ffa05b">
    <animate attributeName="opacity" values="1;0" keyTimes="0;1" dur="0.5813953488372093s" begin="-0.21511627906976744s" repeatCount="indefinite"></animate>
  </rect>
</g><g transform="rotate(226.8 50 50)">
  <rect x="43" y="22.5" rx="7" ry="4.5" width="14" height="9" fill="#ffa05b">
    <animate attributeName="opacity" values="1;0" keyTimes="0;1" dur="0.5813953488372093s" begin="-0.20930232558139536s" repeatCount="indefinite"></animate>
  </rect>
</g><g transform="rotate(230.4 50 50)">
  <rect x="43" y="22.5" rx="7" ry="4.5" width="14" height="9" fill="#ffa05b">
    <animate attributeName="opacity" values="1;0" keyTimes="0;1" dur="0.5813953488372093s" begin="-0.20348837209302326s" repeatCount="indefinite"></animate>
  </rect>
</g><g transform="rotate(234 50 50)">
  <rect x="43" y="22.5" rx="7" ry="4.5" width="14" height="9" fill="#ffa05b">
    <animate attributeName="opacity" values="1;0" keyTimes="0;1" dur="0.5813953488372093s" begin="-0.19767441860465115s" repeatCount="indefinite"></animate>
  </rect>
</g><g transform="rotate(237.6 50 50)">
  <rect x="43" y="22.5" rx="7" ry="4.5" width="14" height="9" fill="#ffa05b">
    <animate attributeName="opacity" values="1;0" keyTimes="0;1" dur="0.5813953488372093s" begin="-0.19186046511627908s" repeatCount="indefinite"></animate>
  </rect>
</g><g transform="rotate(241.2 50 50)">
  <rect x="43" y="22.5" rx="7" ry="4.5" width="14" height="9" fill="#ffa05b">
    <animate attributeName="opacity" values="1;0" keyTimes="0;1" dur="0.5813953488372093s" begin="-0.18604651162790697s" repeatCount="indefinite"></animate>
  </rect>
</g><g transform="rotate(244.8 50 50)">
  <rect x="43" y="22.5" rx="7" ry="4.5" width="14" height="9" fill="#ffa05b">
    <animate attributeName="opacity" values="1;0" keyTimes="0;1" dur="0.5813953488372093s" begin="-0.18023255813953487s" repeatCount="indefinite"></animate>
  </rect>
</g><g transform="rotate(248.4 50 50)">
  <rect x="43" y="22.5" rx="7" ry="4.5" width="14" height="9" fill="#ffa05b">
    <animate attributeName="opacity" values="1;0" keyTimes="0;1" dur="0.5813953488372093s" begin="-0.1744186046511628s" repeatCount="indefinite"></animate>
  </rect>
</g><g transform="rotate(252 50 50)">
  <rect x="43" y="22.5" rx="7" ry="4.5" width="14" height="9" fill="#ffa05b">
    <animate attributeName="opacity" values="1;0" keyTimes="0;1" dur="0.5813953488372093s" begin="-0.1686046511627907s" repeatCount="indefinite"></animate>
  </rect>
</g><g transform="rotate(255.6 50 50)">
  <rect x="43" y="22.5" rx="7" ry="4.5" width="14" height="9" fill="#ffa05b">
    <animate attributeName="opacity" values="1;0" keyTimes="0;1" dur="0.5813953488372093s" begin="-0.16279069767441862s" repeatCount="indefinite"></animate>
  </rect>
</g><g transform="rotate(259.2 50 50)">
  <rect x="43" y="22.5" rx="7" ry="4.5" width="14" height="9" fill="#ffa05b">
    <animate attributeName="opacity" values="1;0" keyTimes="0;1" dur="0.5813953488372093s" begin="-0.1569767441860465s" repeatCount="indefinite"></animate>
  </rect>
</g><g transform="rotate(262.8 50 50)">
  <rect x="43" y="22.5" rx="7" ry="4.5" width="14" height="9" fill="#ffa05b">
    <animate attributeName="opacity" values="1;0" keyTimes="0;1" dur="0.5813953488372093s" begin="-0.1511627906976744s" repeatCount="indefinite"></animate>
  </rect>
</g><g transform="rotate(266.4 50 50)">
  <rect x="43" y="22.5" rx="7" ry="4.5" width="14" height="9" fill="#ffa05b">
    <animate attributeName="opacity" values="1;0" keyTimes="0;1" dur="0.5813953488372093s" begin="-0.14534883720930233s" repeatCount="indefinite"></animate>
  </rect>
</g><g transform="rotate(270 50 50)">
  <rect x="43" y="22.5" rx="7" ry="4.5" width="14" height="9" fill="#ffa05b">
    <animate attributeName="opacity" values="1;0" keyTimes="0;1" dur="0.5813953488372093s" begin="-0.13953488372093023s" repeatCount="indefinite"></animate>
  </rect>
</g><g transform="rotate(273.6 50 50)">
  <rect x="43" y="22.5" rx="7" ry="4.5" width="14" height="9" fill="#ffa05b">
    <animate attributeName="opacity" values="1;0" keyTimes="0;1" dur="0.5813953488372093s" begin="-0.13372093023255813s" repeatCount="indefinite"></animate>
  </rect>
</g><g transform="rotate(277.2 50 50)">
  <rect x="43" y="22.5" rx="7" ry="4.5" width="14" height="9" fill="#ffa05b">
    <animate attributeName="opacity" values="1;0" keyTimes="0;1" dur="0.5813953488372093s" begin="-0.12790697674418605s" repeatCount="indefinite"></animate>
  </rect>
</g><g transform="rotate(280.8 50 50)">
  <rect x="43" y="22.5" rx="7" ry="4.5" width="14" height="9" fill="#ffa05b">
    <animate attributeName="opacity" values="1;0" keyTimes="0;1" dur="0.5813953488372093s" begin="-0.12209302325581395s" repeatCount="indefinite"></animate>
  </rect>
</g><g transform="rotate(284.4 50 50)">
  <rect x="43" y="22.5" rx="7" ry="4.5" width="14" height="9" fill="#ffa05b">
    <animate attributeName="opacity" values="1;0" keyTimes="0;1" dur="0.5813953488372093s" begin="-0.11627906976744186s" repeatCount="indefinite"></animate>
  </rect>
</g><g transform="rotate(288 50 50)">
  <rect x="43" y="22.5" rx="7" ry="4.5" width="14" height="9" fill="#ffa05b">
    <animate attributeName="opacity" values="1;0" keyTimes="0;1" dur="0.5813953488372093s" begin="-0.11046511627906977s" repeatCount="indefinite"></animate>
  </rect>
</g><g transform="rotate(291.6 50 50)">
  <rect x="43" y="22.5" rx="7" ry="4.5" width="14" height="9" fill="#ffa05b">
    <animate attributeName="opacity" values="1;0" keyTimes="0;1" dur="0.5813953488372093s" begin="-0.10465116279069768s" repeatCount="indefinite"></animate>
  </rect>
</g><g transform="rotate(295.2 50 50)">
  <rect x="43" y="22.5" rx="7" ry="4.5" width="14" height="9" fill="#ffa05b">
    <animate attributeName="opacity" values="1;0" keyTimes="0;1" dur="0.5813953488372093s" begin="-0.09883720930232558s" repeatCount="indefinite"></animate>
  </rect>
</g><g transform="rotate(298.8 50 50)">
  <rect x="43" y="22.5" rx="7" ry="4.5" width="14" height="9" fill="#ffa05b">
    <animate attributeName="opacity" values="1;0" keyTimes="0;1" dur="0.5813953488372093s" begin="-0.09302325581395349s" repeatCount="indefinite"></animate>
  </rect>
</g><g transform="rotate(302.4 50 50)">
  <rect x="43" y="22.5" rx="7" ry="4.5" width="14" height="9" fill="#ffa05b">
    <animate attributeName="opacity" values="1;0" keyTimes="0;1" dur="0.5813953488372093s" begin="-0.0872093023255814s" repeatCount="indefinite"></animate>
  </rect>
</g><g transform="rotate(306 50 50)">
  <rect x="43" y="22.5" rx="7" ry="4.5" width="14" height="9" fill="#ffa05b">
    <animate attributeName="opacity" values="1;0" keyTimes="0;1" dur="0.5813953488372093s" begin="-0.08139534883720931s" repeatCount="indefinite"></animate>
  </rect>
</g><g transform="rotate(309.6 50 50)">
  <rect x="43" y="22.5" rx="7" ry="4.5" width="14" height="9" fill="#ffa05b">
    <animate attributeName="opacity" values="1;0" keyTimes="0;1" dur="0.5813953488372093s" begin="-0.0755813953488372s" repeatCount="indefinite"></animate>
  </rect>
</g><g transform="rotate(313.2 50 50)">
  <rect x="43" y="22.5" rx="7" ry="4.5" width="14" height="9" fill="#ffa05b">
    <animate attributeName="opacity" values="1;0" keyTimes="0;1" dur="0.5813953488372093s" begin="-0.06976744186046512s" repeatCount="indefinite"></animate>
  </rect>
</g><g transform="rotate(316.8 50 50)">
  <rect x="43" y="22.5" rx="7" ry="4.5" width="14" height="9" fill="#ffa05b">
    <animate attributeName="opacity" values="1;0" keyTimes="0;1" dur="0.5813953488372093s" begin="-0.06395348837209303s" repeatCount="indefinite"></animate>
  </rect>
</g><g transform="rotate(320.4 50 50)">
  <rect x="43" y="22.5" rx="7" ry="4.5" width="14" height="9" fill="#ffa05b">
    <animate attributeName="opacity" values="1;0" keyTimes="0;1" dur="0.5813953488372093s" begin="-0.05813953488372093s" repeatCount="indefinite"></animate>
  </rect>
</g><g transform="rotate(324 50 50)">
  <rect x="43" y="22.5" rx="7" ry="4.5" width="14" height="9" fill="#ffa05b">
    <animate attributeName="opacity" values="1;0" keyTimes="0;1" dur="0.5813953488372093s" begin="-0.05232558139534884s" repeatCount="indefinite"></animate>
  </rect>
</g><g transform="rotate(327.6 50 50)">
  <rect x="43" y="22.5" rx="7" ry="4.5" width="14" height="9" fill="#ffa05b">
    <animate attributeName="opacity" values="1;0" keyTimes="0;1" dur="0.5813953488372093s" begin="-0.046511627906976744s" repeatCount="indefinite"></animate>
  </rect>
</g><g transform="rotate(331.2 50 50)">
  <rect x="43" y="22.5" rx="7" ry="4.5" width="14" height="9" fill="#ffa05b">
    <animate attributeName="opacity" values="1;0" keyTimes="0;1" dur="0.5813953488372093s" begin="-0.040697674418604654s" repeatCount="indefinite"></animate>
  </rect>
</g><g transform="rotate(334.8 50 50)">
  <rect x="43" y="22.5" rx="7" ry="4.5" width="14" height="9" fill="#ffa05b">
    <animate attributeName="opacity" values="1;0" keyTimes="0;1" dur="0.5813953488372093s" begin="-0.03488372093023256s" repeatCount="indefinite"></animate>
  </rect>
</g><g transform="rotate(338.4 50 50)">
  <rect x="43" y="22.5" rx="7" ry="4.5" width="14" height="9" fill="#ffa05b">
    <animate attributeName="opacity" values="1;0" keyTimes="0;1" dur="0.5813953488372093s" begin="-0.029069767441860465s" repeatCount="indefinite"></animate>
  </rect>
</g><g transform="rotate(342 50 50)">
  <rect x="43" y="22.5" rx="7" ry="4.5" width="14" height="9" fill="#ffa05b">
    <animate attributeName="opacity" values="1;0" keyTimes="0;1" dur="0.5813953488372093s" begin="-0.023255813953488372s" repeatCount="indefinite"></animate>
  </rect>
</g><g transform="rotate(345.6 50 50)">
  <rect x="43" y="22.5" rx="7" ry="4.5" width="14" height="9" fill="#ffa05b">
    <animate attributeName="opacity" values="1;0" keyTimes="0;1" dur="0.5813953488372093s" begin="-0.01744186046511628s" repeatCount="indefinite"></animate>
  </rect>
</g><g transform="rotate(349.2 50 50)">
  <rect x="43" y="22.5" rx="7" ry="4.5" width="14" height="9" fill="#ffa05b">
    <animate attributeName="opacity" values="1;0" keyTimes="0;1" dur="0.5813953488372093s" begin="-0.011627906976744186s" repeatCount="indefinite"></animate>
  </rect>
</g><g transform="rotate(352.8 50 50)">
  <rect x="43" y="22.5" rx="7" ry="4.5" width="14" height="9" fill="#ffa05b">
    <animate attributeName="opacity" values="1;0" keyTimes="0;1" dur="0.5813953488372093s" begin="-0.005813953488372093s" repeatCount="indefinite"></animate>
  </rect>
</g><g transform="rotate(356.4 50 50)">
  <rect x="43" y="22.5" rx="7" ry="4.5" width="14" height="9" fill="#ffa05b">
    <animate attributeName="opacity" values="1;0" keyTimes="0;1" dur="0.5813953488372093s" begin="0s" repeatCount="indefinite"></animate>
  </rect>
</g>
<!-- [ldio] generated by https://loading.io/ --></svg>